PathFileType   4   (X/Y/Z)																																																																																																																						
DataRate	CameraRate	NumFrames	NumMarkers	Units	OrigDataRate	OrigDataStartFrame	OrigNumFrames																																																																																																															
120	120	4	37	mm	120	44	116																																																																																																															
Frame#	Time	Sternum	R.Acromium	L.Acromium	Top.Head	R.ASIS	L.ASIS	V.Sacral	R.Thigh.Upper	R.Thigh.Front	R.Thigh.Rear	R.Knee.Lat	R.Knee.Med	R.Shank.Upper	R.Shank.Front	R.Shank.Rear	R.Ankle.Lat	R.Ankle.Med	R.Heel	R.Midfoot.Sup	R.Midfoot.Lat	R.Toe.Lat	R.Toe.Med	R.Toe.Tip	L.Thigh.Upper	L.Thigh.Front	L.Thigh.Rear	L.Knee.Lat	L.Knee.Med	L.Shank.Upper	L.Shank.Front	L.Shank.Rear	L.Ankle.Lat	L.Ankle.Med	L.Heel	L.Midfoot.Sup	L.Midfoot.Lat	L.Toe.Lat	L.Toe.Med	L.Toe.Tip																																																																														
 	 	X1	Y1	Z1	X2	Y2	Z2	X3	Y3	Z3	X4	Y4	Z4	X5	Y5	Z5	X6	Y6	Z6	X7	Y7	Z7	X8	Y8	Z8	X9	Y9	Z9	X10	Y10	Z10	X11	Y11	Z11	X12	Y12	Z12	X13	Y13	Z13	X14	Y14	Z14	X15	Y15	Z15	X16	Y16	Z16	X17	Y17	Z17	X18	Y18	Z18	X19	Y19	Z19	X20	Y20	Z20	X21	Y21	Z21	X22	Y22	Z22	X23	Y23	Z23	X24	Y24	Z24	X25	Y25	Z25	X26	Y26	Z26	X27	Y27	Z27	X28	Y28	Z28	X29	Y29	Z29	X30	Y30	Z30	X31	Y31	Z31	X32	Y32	Z32	X33	Y33	Z33	X34	Y34	Z34	X35	Y35	Z35	X36	Y36	Z36	X37	Y37	Z37	X38	Y38	Z38	X39	Y39	Z39
																																																																																																																						
44	0.49167	1052.760482	-0.000992919	1.23E+03	944.0410123	-160.4625222	1350.934945	948.3481547	163.6853836	1364.174117	1054.293721	-9.995724821	1599.715161	1031.009974	-119.563877	890.2497088	1035.980027	121.1976851	882.1914548	853.0477915	-5.695750883	911.4206241	1050.462191	-151.852957	657.060202	1115.135245	-72.89581202	631.0951001	1084.831137	-144.0380039	562.5604073	1084.980126	-128.7803171	484.4460302	1089.499934	-28.27664901	471.2988507	1090.282393	-139.9773559	405.7566907	1161.712171	-92.759033	398.3036921	1127.526297	-148.0192813	340.4678575	1210.575464	-126.2596959	107.2849636	1212.821229	-48.83628676	121.3901501	1158.058799	-81.79932302	69.9867462	1275.785645	-50.48617332	119.2303235	1276.814838	-145.6838404	101.1231642	1358.936529	-153.7519611	105.6736818	1357.286405	-57.55224411	117.3383955	1408.521584	-85.7250635	134.588856	931.6259113	155.8898652	629.5585049	988.858796	93.1736068	583.5067925	906.6852141	143.1256019	542.5967301	864.8730723	130.2344758	440.9578099	865.9810494	33.90932835	441.3458865	841.2957001	146.028905	375.1621074	860.5225111	97.96343807	320.6307222	813.3856968	155.397025	346.1049106	724.8573122	125.837295	88.32495649	735.7096932	46.58044596	105.7272446	654.0940265	79.29350631	84.32500232	806.1536473	55.87355549	68.14152412	789.9622739	143.3687015	70.11253413	843.1801716	152.6622596	42.86179056	858.1864894	62.03409965	41.01695618	901.6024287	84.48225282	36.47357493
45	0.5	1062.501001	-0.000992919	1.23E+03	953.7522877	-160.4625222	1349.21429	958.0562589	163.6853836	1362.454494	1063.945405	-9.995724821	1598.020907	1040.961122	-119.563877	888.8132954	1045.952187	121.1976851	880.7680387	862.9442976	-5.695750883	909.5197262	1060.182346	-151.852957	655.0137214	1124.774551	-72.89581202	628.8481434	1094.25801	-144.0380039	560.4077767	1094.164706	-128.7803171	482.2933133	1098.643712	-28.27664901	469.1321776	1099.881651	-139.9773559	403.5710332	1171.388334	-92.759033	396.8961131	1137.83413	-148.0192813	338.6915335	1223.416974	-126.2596959	106.4265925	1225.509047	-48.83628676	120.5553921	1170.975662	-81.79932302	68.97474442	1288.540942	-50.48617332	118.6028134	1289.629307	-145.6838404	100.4991144	1371.735688	-153.7519611	105.3179977	1370.04745	-57.55224411	116.9772561	1421.225977	-85.7250635	134.3950712	940.5236375	155.8898652	627.897113	997.4173904	93.1736068	581.4270776	914.9461146	143.1256019	541.1205091	872.390006	130.2344758	439.7908347	873.5007982	33.90932835	440.1707786	847.8495415	146.028905	374.307104	866.1362716	97.96343807	319.453319	819.4442495	155.397025	345.7338937	726.4984303	125.837295	89.51356985	737.6483046	46.58044596	106.7267656	655.7199647	79.29350631	86.3061583	807.591847	55.87355549	68.44657783	791.4231969	143.3687015	70.59604486	844.3373055	152.6622596	42.7600112	859.3223637	62.03409965	40.74978226	902.6855528	84.48225282	35.72783696
46	0.50833	1072.35895	-0.000992919	1.23E+03	963.5589611	-160.4625222	1347.557601	967.8573697	163.6853836	1360.799612	1073.647544	-9.995724821	1596.410489	1051.074157	-119.563877	887.4245089	1056.085304	121.1976851	879.3917451	873.006163	-5.695750883	907.6861868	1070.15469	-151.852957	653.1058337	1134.683347	-72.89581202	626.7839261	1104.00117	-144.0380039	558.4176541	1103.718717	-128.7803171	480.3036456	1108.165841	-28.27664901	467.1317028	1109.635746	-139.9773559	401.5626389	1181.180059	-92.759033	395.3039187	1147.965106	-148.0192813	336.9050775	1234.898017	-126.2596959	105.1420627	1236.907842	-48.83628676	119.2827966	1182.322275	-81.79932302	67.82763841	1299.999601	-50.48617332	117.1894365	1301.04698	-145.6838404	99.08331997	1383.16406	-153.7519611	103.7163189	1381.50222	-57.55224411	115.3793693	1432.720047	-85.7250635	132.681282	949.7510741	155.8898652	626.2985269	1006.350093	93.1736068	579.4699634	923.6258057	143.1256019	539.6852542	880.4303439	130.2344758	438.6264724	881.5435145	33.90932835	438.9993908	854.9090572	146.028905	373.4724607	872.2016152	97.96343807	318.2971975	825.9920962	155.397025	345.4171879	728.431651	125.837295	90.91819149	739.8907406	46.58044596	107.927103	657.6360193	79.29350631	88.66139789	809.2568876	55.87355549	68.78313031	793.1182614	143.3687015	71.14748973	845.6574007	152.6622596	42.61003202	860.6143921	62.03409965	40.40064305	903.9069401	84.48225282	34.80230566
47	0.51667	1082.333601	-0.000992919	1.22E+03	973.457906	-160.4625222	1345.993271	977.7480964	163.6853836	1359.237946	1083.392042	-9.995724821	1594.914426	1061.353296	-119.563877	886.1096357	1066.383476	121.1976851	878.0887774	883.2377552	-5.695750883	905.9490025	1080.387492	-151.852957	651.367264	1144.871094	-72.89581202	624.9351729	1114.072186	-144.0380039	556.6214091	1113.656305	-128.7803171	478.507997	1118.080924	-28.27664901	465.3284773	1119.567068	-139.9773559	399.7560312	1191.117528	-92.759033	393.5679774	1157.960271	-148.0192813	335.1363588	1245.122049	-126.2596959	103.4593194	1247.117906	-48.83628676	117.6020314	1192.214022	-81.79932302	66.5618324	1310.260067	-50.48617332	115.0352409	1311.170943	-145.6838404	96.92174416	1393.320611	-153.7519611	100.9356578	1391.746728	-57.55224411	112.6109029	1443.093512	-85.7250635	129.5262722	959.3257684	155.8898652	624.7865296	1015.679545	93.1736068	577.6631261	932.7486871	143.1256019	538.3108255	889.0262314	130.2344758	437.4789249	890.1413337	33.90932835	437.8460268	862.5115303	146.028905	372.6726801	878.7572407	97.96343807	317.1801659	833.0690208	155.397025	345.1694513	730.7116629	125.837295	92.56155167	742.4904604	46.58044596	109.3506474	659.8995791	79.29350631	91.4600158	811.1774641	55.87355549	69.12093043	795.0793828	143.3687015	71.74718813	847.1479282	152.6622596	42.359874	862.0670485	62.03409965	39.90776475	905.2629237	84.48225282	33.6067759
